<svg width="1004" height="885" viewBox="0 0 1004 885" fill="none" xmlns="http://www.w3.org/2000/svg">
<path d="M218.423 711.132C218.29 711.223 218.149 711.304 218.014 711.392H103.486C101.242 703.409 100.449 695.418 103.801 688.478C108.577 678.589 122.712 672.416 133.949 676.663C136.611 677.696 138.931 679.307 140.689 681.344C145.08 674.443 152.958 669.239 162.051 669.245C173.442 669.252 182.914 677.431 186.005 686.879C190.982 679.502 200.814 674.348 210.423 676.565C226.495 680.274 231.572 702.21 218.423 711.132Z" fill="#288467"/>
<path d="M835.694 652.354C827.824 666.71 813.32 677.39 798.115 686.072C781.498 695.552 763.593 703.167 744.821 708.737C742.248 709.516 739.649 710.241 737.038 710.932H631.461C630.724 710.23 630.024 709.494 629.362 708.737C622.291 700.779 618.468 690.583 619.855 680.595C621.641 667.764 632.735 655.976 647.102 653.254C661.481 650.521 677.871 658.061 682.244 670.409C684.643 646.613 687.416 621.83 701.808 601.568C714.851 583.227 737.425 570.1 761.886 567.751C776.274 566.435 790.789 568.77 803.712 574.48C804.899 575.006 806.074 575.555 807.223 576.126C814.978 579.989 821.822 585.119 827.386 591.24C842.64 608.209 846.376 632.872 835.694 652.354Z" fill="#45B793"/>
<path d="M806.448 577.63C757.352 612.76 718.556 657.718 693.313 708.737C692.951 709.461 692.588 710.197 692.238 710.932H687.266C687.616 710.197 687.966 709.461 688.328 708.737C693.138 698.859 698.447 689.156 704.282 679.706C716.696 659.61 731.302 640.62 747.894 623.004C764.475 605.366 782.996 589.208 803.187 574.765C803.348 574.65 803.524 574.555 803.712 574.48C804.063 574.346 804.444 574.283 804.826 574.296C805.208 574.31 805.582 574.399 805.92 574.557C806.258 574.716 806.55 574.939 806.776 575.211C807.001 575.482 807.154 575.795 807.222 576.126C807.258 576.415 807.206 576.706 807.069 576.971C806.933 577.235 806.719 577.463 806.448 577.63Z" fill="#B2FFE6"/>
<path d="M414.739 476.052C415.973 474.98 416.924 473.684 417.525 472.255C418.127 470.826 418.364 469.298 418.221 467.779C418.077 466.26 417.557 464.787 416.696 463.465C415.834 462.142 414.653 461.001 413.236 460.122L407.244 425.417L382.632 432.223L396.115 463.186C394.593 465.375 394.039 467.98 394.556 470.505C395.073 473.03 396.627 475.301 398.923 476.887C401.218 478.473 404.096 479.264 407.012 479.11C409.927 478.956 412.676 477.868 414.739 476.052H414.739Z" fill="#A37070"/>
<path d="M389.384 459.725L374.202 397.429C372.723 391.462 373.012 385.261 375.042 379.42C377.073 373.579 380.776 368.294 385.797 364.071C405.231 347.617 430.208 326.878 438.835 321.514C446.933 316.443 456.731 313.902 466.665 314.297L466.873 314.317L479.933 325.161L451.483 366.308L408.294 390.083L413.1 451.141L389.384 459.725Z" fill="#45B793"/>
<path d="M442.556 375.069H378.842C376.082 375.069 373.845 377.035 373.845 379.46C373.845 381.884 376.082 383.85 378.842 383.85H442.556C445.316 383.85 447.553 381.884 447.553 379.46C447.553 377.035 445.316 375.069 442.556 375.069Z" fill="#CCCCCC"/>
<path d="M442.556 470.56H378.842C376.082 470.56 373.845 472.525 373.845 474.95C373.845 477.375 376.082 479.34 378.842 479.34H442.556C445.316 479.34 447.553 477.375 447.553 474.95C447.553 472.525 445.316 470.56 442.556 470.56Z" fill="#CCCCCC"/>
<path d="M411.324 709.835C410.699 709.835 410.098 709.629 409.637 709.259C409.176 708.888 408.89 708.38 408.835 707.833L376.983 379.654C376.924 379.074 377.13 378.497 377.556 378.051C377.981 377.604 378.591 377.325 379.251 377.273C379.911 377.222 380.567 377.403 381.075 377.776C381.584 378.15 381.902 378.686 381.961 379.266L411.288 682.477L439.782 379.271C439.81 378.984 439.902 378.704 440.053 378.448C440.204 378.193 440.411 377.965 440.662 377.78C440.914 377.594 441.204 377.454 441.517 377.367C441.829 377.28 442.159 377.248 442.486 377.273C442.813 377.297 443.131 377.378 443.422 377.511C443.713 377.644 443.972 377.826 444.183 378.047C444.394 378.267 444.554 378.522 444.653 378.797C444.752 379.072 444.789 379.361 444.76 379.648L413.813 707.828C413.759 708.375 413.474 708.885 413.014 709.256C412.554 709.627 411.952 709.834 411.327 709.835H411.324Z" fill="#CCCCCC"/>
<path d="M482.826 301.16C500.93 301.16 515.606 288.266 515.606 272.361C515.606 256.455 500.93 243.562 482.826 243.562C464.722 243.562 450.046 256.455 450.046 272.361C450.046 288.266 464.722 301.16 482.826 301.16Z" fill="#A37070"/>
<path d="M385.134 696.672L369.545 692.307L381.291 637.4L404.3 643.843L385.134 696.672Z" fill="#A37070"/>
<path d="M384.266 708.821L334.081 694.767L334.495 693.622C336.091 689.241 339.6 685.594 344.252 683.483C348.904 681.372 354.32 680.967 359.311 682.359L390.679 691.143L384.266 708.821Z" fill="#2F2E41"/>
<path d="M498.555 696.388H482.193L474.407 640.94H498.555V696.388Z" fill="#A37070"/>
<path d="M451.262 709.188H501.438V692.83H469.763C464.858 692.835 460.156 694.549 456.687 697.596C453.219 700.643 451.268 704.775 451.262 709.084V709.188Z" fill="#2F2E41"/>
<path d="M498.077 678.394L492.554 677.67C475.805 675.478 474.802 675.347 472.143 674.321C470.785 673.797 470.69 665.877 471.505 621.356C472.103 588.675 472.848 548.004 471.402 526.17C471.342 525.308 470.954 524.489 470.3 523.845C469.646 523.201 468.764 522.77 467.797 522.62C466.829 522.47 465.833 522.611 464.967 523.02C464.102 523.429 463.419 524.082 463.028 524.874C450.566 550.159 429.657 606.743 415.821 644.186C411.008 657.211 407.207 667.498 404.802 673.665C404.338 674.831 403.395 675.803 402.158 676.391C400.921 676.98 399.479 677.142 398.114 676.846C386.728 674.345 387.489 673.282 371.272 669.597C369.869 669.282 368.659 668.503 367.895 667.423C367.131 666.342 366.872 665.044 367.173 663.799C370.106 651.647 423.783 454.599 427.892 435.868C428.031 435.226 428.313 434.616 428.722 434.071C429.132 433.526 429.659 433.058 430.276 432.694C430.892 432.329 431.584 432.075 432.313 431.947C433.041 431.819 433.791 431.819 434.52 431.947C446.605 434.087 453.957 436.356 465.9 438.551C478.787 440.919 492.113 443.368 505.111 445.654C506.405 445.883 507.564 446.507 508.383 447.416C511.599 450.985 516.368 452.988 521.418 455.109C524.822 456.539 517.108 456.41 520.073 458.472C532.078 466.822 514.814 636.378 504.382 674.673C504.047 675.872 503.216 676.918 502.049 677.606C500.883 678.294 499.466 678.576 498.077 678.394V678.394Z" fill="#2F2E41"/>
<path d="M496.798 297.561C494.884 290.427 504.559 275.076 502.645 267.941C501.349 263.11 488.417 266.394 485.399 262.197C482.381 258.001 477.327 254.601 471.677 254.545C465.183 254.481 458.793 258.713 452.642 256.884C446.422 255.035 444.434 247.552 447.184 242.313C449.934 237.074 455.857 233.736 461.71 231.12C471.676 226.665 483.28 223.412 493.947 226.36C500.395 228.141 505.787 232.002 511.004 235.777C515.76 239.219 520.596 242.739 523.921 247.296C530.434 256.225 530.041 268.256 524.475 277.666C518.909 287.076 508.767 293.982 497.592 297.99" fill="#2F2E41"/>
<path d="M416.308 463.59C419.846 458.398 425.218 434.068 431.842 393.231C436.351 365.353 440.281 337.028 442.23 322.558C442.382 321.387 442.869 320.269 443.647 319.309C444.425 318.349 445.467 317.578 446.677 317.069C447.942 316.532 449.2 316.025 450.45 315.546C466.595 309.376 482.956 307.332 499.077 309.469C515.175 311.642 530.273 317.686 542.701 326.933L542.848 327.055L542.886 327.229C542.956 327.55 549.727 359.605 535.858 381.262C522.181 402.631 522.021 459.22 522.021 459.789V460.517L521.225 460.317C499.947 454.976 417.753 464.321 416.925 464.416L415.645 464.563L416.308 463.59Z" fill="#45B793"/>
<path d="M540 389.338H476.287C473.527 389.338 471.29 391.304 471.29 393.728C471.29 396.153 473.527 398.119 476.287 398.119H540C542.76 398.119 544.998 396.153 544.998 393.728C544.998 391.304 542.76 389.338 540 389.338Z" fill="#CCCCCC"/>
<path d="M540 484.828H476.287C473.527 484.828 471.29 486.794 471.29 489.219C471.29 491.643 473.527 493.609 476.287 493.609H540C542.76 493.609 544.998 491.643 544.998 489.219C544.998 486.794 542.76 484.828 540 484.828Z" fill="#CCCCCC"/>
<path d="M508.768 710.932C508.144 710.932 507.542 710.727 507.081 710.356C506.62 709.986 506.334 709.477 506.279 708.931L474.427 393.922C474.398 393.635 474.434 393.346 474.532 393.071C474.63 392.796 474.789 392.54 475 392.319C475.211 392.098 475.469 391.916 475.76 391.782C476.05 391.649 476.368 391.567 476.695 391.542C477.022 391.516 477.351 391.548 477.664 391.634C477.978 391.72 478.268 391.86 478.52 392.045C478.771 392.23 478.979 392.457 479.131 392.712C479.283 392.968 479.376 393.247 479.405 393.534L508.732 683.574L537.226 393.54C537.282 392.96 537.599 392.423 538.106 392.048C538.614 391.674 539.269 391.491 539.93 391.541C540.59 391.591 541.2 391.87 541.627 392.315C542.054 392.761 542.261 393.337 542.204 393.917L511.257 708.926C511.204 709.473 510.918 709.982 510.458 710.354C509.998 710.725 509.396 710.931 508.771 710.932H508.768Z" fill="#CCCCCC"/>
<path d="M488.196 486.219C487.823 484.731 487.827 483.189 488.206 481.701C488.585 480.214 489.331 478.818 490.39 477.612C491.45 476.405 492.798 475.418 494.339 474.718C495.88 474.019 497.577 473.625 499.31 473.564L525.804 447.29L542.257 464.753L511.788 484.309C511.711 486.874 510.567 489.325 508.571 491.198C506.574 493.071 503.866 494.235 500.958 494.47C498.05 494.706 495.144 493.996 492.792 492.475C490.44 490.954 488.805 488.728 488.196 486.219V486.219Z" fill="#A37070"/>
<path d="M503.622 467.932L545.419 418.969L523.866 378.391L525.431 330.267L543.101 327.398L543.288 327.481C551.872 331.892 558.526 338.703 562.188 346.825C566.113 355.448 574.254 384.781 580.393 407.871C581.996 413.814 581.836 420.019 579.928 425.891C578.02 431.764 574.428 437.108 569.495 441.411L518.222 486.46L503.622 467.932Z" fill="#45B793"/>
<path d="M328.409 697.317L385.593 709.413C386.702 709.671 387.879 709.579 388.919 709.152C389.959 708.726 390.795 707.992 391.283 707.079L440.405 592.335C440.621 591.894 440.734 591.419 440.734 590.938C440.735 590.458 440.624 589.982 440.409 589.541C440.161 589.045 439.801 588.599 439.352 588.229C438.902 587.859 438.371 587.573 437.792 587.388L394.798 572.963C394.119 572.735 393.392 572.635 392.665 572.67C391.939 572.705 391.229 572.875 390.582 573.168C390.021 573.412 389.525 573.758 389.128 574.185C388.731 574.611 388.443 575.107 388.283 575.64L388.282 575.645L357.937 676.776L357.486 676.8C357.312 676.81 339.916 677.85 332.093 686.1C330.633 687.646 329.552 689.44 328.918 691.37C328.284 693.301 328.111 695.325 328.409 697.317Z" fill="#CCCCCC"/>
<path d="M369.823 632.994L369.56 635.177L421.694 640.028L421.958 637.844L369.823 632.994Z" fill="#B3B3B3"/>
<path d="M365.277 651.079L364.252 653.081L406.206 669.665L407.232 667.663L365.277 651.079Z" fill="#B3B3B3"/>
<path d="M427.445 622.469L377.994 608.079L379.02 606.077L428.47 620.467L427.445 622.469Z" fill="#B3B3B3"/>
<path d="M432.441 612.59L382.991 591.615L384.017 589.613L433.467 610.588L432.441 612.59Z" fill="#B3B3B3"/>
<path d="M360.916 668.267L359.294 669.935L394.947 696.694L396.57 695.025L360.916 668.267Z" fill="#B3B3B3"/>
<path d="M350.794 677.137L348.518 678.044L362.834 705.78L365.109 704.873L350.794 677.137Z" fill="#B3B3B3"/>
<path d="M685.992 678.448V178.162C685.992 171.406 686.138 164.636 685.992 157.881C685.986 157.586 685.992 157.29 685.992 156.994C685.992 152.757 678.496 152.75 678.496 156.994V657.281C678.496 664.036 678.35 670.807 678.496 677.561C678.503 677.857 678.496 678.153 678.496 678.448C678.496 682.686 685.992 682.693 685.992 678.448V678.448Z" fill="#45B793"/>
<path d="M727.447 296.82H637.499C635.346 296.818 633.282 296.066 631.759 294.728C630.237 293.391 629.381 291.578 629.378 289.686V193.647C629.381 191.755 630.237 189.942 631.759 188.605C633.282 187.267 635.346 186.515 637.499 186.513H727.447C729.6 186.515 731.664 187.267 733.187 188.605C734.709 189.942 735.565 191.755 735.568 193.647V289.686C735.565 291.578 734.709 293.391 733.187 294.728C731.664 296.066 729.6 296.818 727.447 296.82Z" fill="#45B793"/>
<path d="M945.017 711.384C944.825 711.514 944.623 711.631 944.429 711.759H779.687C776.459 700.276 775.319 688.78 780.141 678.797C787.01 664.572 807.343 655.693 823.507 661.802C827.336 663.288 830.672 665.605 833.201 668.536C839.518 658.609 850.85 651.123 863.929 651.131C880.315 651.142 893.94 662.907 898.386 676.497C905.545 665.887 919.687 658.472 933.51 661.662C956.629 666.997 963.931 698.55 945.017 711.384Z" fill="#288467"/>
<path d="M232.799 547.912C232.799 513.994 201.481 433.507 162.849 433.507C124.217 433.507 92.8992 513.994 92.8992 547.912C92.9094 564.205 100.284 579.828 113.401 591.346C126.518 602.864 144.304 609.334 162.849 609.334C181.394 609.334 199.18 602.864 212.297 591.346C225.414 579.828 232.789 564.205 232.799 547.912Z" fill="#288467"/>
<path d="M999.456 398.935C999.456 333.775 939.292 179.155 865.077 179.155C790.862 179.155 730.699 333.775 730.699 398.935C730.721 430.234 744.889 460.244 770.087 482.369C795.286 504.493 829.453 516.922 865.077 516.922C900.702 516.922 934.869 504.493 960.067 482.369C985.266 460.244 999.433 430.234 999.456 398.935Z" fill="#288467"/>
<path d="M162.849 693.465C162.95 693.465 163.05 693.447 163.143 693.413C163.236 693.379 163.321 693.33 163.392 693.267C163.463 693.205 163.52 693.13 163.559 693.048C163.597 692.966 163.617 692.879 163.617 692.79V456C163.616 455.821 163.535 455.65 163.391 455.524C163.247 455.398 163.052 455.327 162.849 455.327C162.646 455.327 162.451 455.398 162.307 455.524C162.163 455.65 162.082 455.821 162.081 456V692.79C162.081 692.879 162.101 692.966 162.139 693.048C162.178 693.13 162.235 693.205 162.306 693.267C162.377 693.33 162.462 693.379 162.555 693.413C162.648 693.447 162.748 693.465 162.849 693.465Z" fill="#2F2E41"/>
<path d="M865.077 356.767C865.222 356.767 865.366 356.742 865.5 356.693C865.634 356.644 865.756 356.573 865.859 356.483L919.045 309.786C919.149 309.696 919.232 309.589 919.289 309.471C919.346 309.353 919.375 309.226 919.376 309.098C919.376 308.97 919.348 308.843 919.292 308.724C919.237 308.606 919.155 308.498 919.052 308.407C918.949 308.317 918.826 308.245 918.691 308.196C918.556 308.148 918.412 308.123 918.266 308.123C918.12 308.124 917.975 308.15 917.841 308.2C917.707 308.25 917.585 308.323 917.483 308.414L864.296 355.111C864.142 355.246 864.036 355.419 863.994 355.608C863.951 355.796 863.973 355.991 864.057 356.168C864.14 356.345 864.282 356.497 864.464 356.603C864.645 356.71 864.859 356.767 865.077 356.767Z" fill="#2F2E41"/>
<path d="M862.941 437.608C863.159 437.608 863.373 437.551 863.555 437.445C863.736 437.338 863.878 437.187 863.961 437.009C864.045 436.832 864.067 436.637 864.024 436.449C863.982 436.261 863.877 436.088 863.722 435.952L774.651 357.749C774.444 357.57 774.164 357.47 773.872 357.471C773.581 357.472 773.302 357.574 773.096 357.755C772.89 357.936 772.774 358.181 772.772 358.437C772.771 358.692 772.885 358.938 773.089 359.121L862.159 437.324C862.262 437.414 862.384 437.486 862.518 437.534C862.652 437.583 862.796 437.608 862.941 437.608Z" fill="#2F2E41"/>
<path d="M164.82 713.201H767.333C767.617 713.201 767.888 713.102 768.089 712.926C768.289 712.75 768.402 712.511 768.402 712.262C768.402 712.013 768.289 711.774 768.089 711.598C767.888 711.422 767.617 711.324 767.333 711.324H164.82C164.536 711.324 164.264 711.422 164.064 711.598C163.864 711.774 163.751 712.013 163.751 712.262C163.751 712.511 163.864 712.75 164.064 712.926C164.264 713.102 164.536 713.201 164.82 713.201Z" fill="#3F3D56"/>
<path d="M862.941 685.97C863.234 685.97 863.515 685.868 863.722 685.686C863.929 685.504 864.046 685.258 864.046 685V278.238C864.046 277.981 863.929 277.734 863.722 277.552C863.515 277.37 863.234 277.268 862.941 277.268C862.648 277.268 862.367 277.37 862.16 277.552C861.952 277.734 861.836 277.981 861.836 278.238V685C861.836 685.258 861.953 685.504 862.16 685.686C862.367 685.868 862.648 685.97 862.941 685.97Z" fill="#2F2E41"/>
<path d="M162.849 565.855C163.001 565.855 163.149 565.815 163.276 565.741C163.402 565.667 163.5 565.562 163.559 565.438C163.617 565.315 163.632 565.18 163.602 565.049C163.573 564.918 163.5 564.798 163.392 564.703L117.494 525.354C117.351 525.227 117.155 525.156 116.952 525.156C116.748 525.156 116.553 525.227 116.408 525.353C116.264 525.48 116.183 525.652 116.183 525.83C116.183 526.009 116.264 526.181 116.408 526.308L162.306 565.657C162.377 565.72 162.462 565.77 162.555 565.803C162.648 565.837 162.748 565.855 162.849 565.855Z" fill="#2F2E41"/>
<path d="M162.849 509.654C162.95 509.654 163.05 509.637 163.143 509.603C163.236 509.569 163.321 509.519 163.392 509.456L200.368 476.993C200.512 476.866 200.592 476.695 200.592 476.516C200.592 476.337 200.511 476.165 200.367 476.039C200.223 475.912 200.028 475.841 199.824 475.841C199.62 475.841 199.425 475.912 199.281 476.039L162.306 508.503C162.198 508.597 162.125 508.717 162.096 508.848C162.066 508.979 162.081 509.114 162.14 509.238C162.198 509.361 162.296 509.466 162.422 509.54C162.549 509.614 162.697 509.654 162.849 509.654Z" fill="#2F2E41"/>
<path d="M738.343 641.669C591.876 775.979 313.863 750.786 117.383 585.398C-79.0978 420.01 124.563 428.131 271.029 293.821C417.495 159.511 451.304 -66.3708 647.784 99.0173C844.264 264.405 884.809 507.359 738.343 641.669Z" fill="#45B793" fill-opacity="0.11"/>
</svg>
